<svg width="205" height="105" viewBox="0 0 205 105" fill="none" xmlns="http://www.w3.org/2000/svg">
    <g clip-path="url(#clip0_810_9)">
    <path d="M30.96 65C35.27 57.53 43.35 52.5 52.6 52.5C61.85 52.5 69.93 57.53 74.24 65" stroke="#EE233B" stroke-width="5" stroke-miterlimit="10"/>
    <path d="M152.5 2.5H52.5C24.8858 2.5 2.5 24.8858 2.5 52.5C2.5 80.1142 24.8858 102.5 52.5 102.5H152.5C180.114 102.5 202.5 80.1142 202.5 52.5C202.5 24.8858 180.114 2.5 152.5 2.5Z" stroke="#EE233B" stroke-width="5" stroke-miterlimit="10"/>
    <path d="M77.6 52.5C77.6 57.06 76.38 61.33 74.24 65C69.93 57.53 61.85 52.5 52.6 52.5C43.35 52.5 35.27 57.53 30.96 65C28.82 61.33 27.6 57.06 27.6 52.5C27.6 38.7 38.79 27.5 52.6 27.5C66.41 27.5 77.6 38.7 77.6 52.5Z" stroke="#EE233B" stroke-width="5" stroke-miterlimit="10"/>
    <path d="M30.96 65C35.27 57.53 43.35 52.5 52.6 52.5C61.85 52.5 69.93 57.53 74.24 65" stroke="#EE233B" stroke-width="5" stroke-miterlimit="10"/>
    <path d="M177.4 52.5C177.4 57.06 176.18 61.33 174.04 65C169.73 57.53 161.65 52.5 152.4 52.5C143.15 52.5 135.07 57.53 130.76 65C128.62 61.33 127.4 57.06 127.4 52.5C127.4 38.7 138.59 27.5 152.4 27.5C166.21 27.5 177.4 38.7 177.4 52.5Z" stroke="#EE233B" stroke-width="5" stroke-miterlimit="10"/>
    </g>
    <defs>
    <clipPath id="clip0_810_9">
    <rect width="205" height="105" fill="white"/>
    </clipPath>
    </defs>
</svg>